<mxfile host="app.diagrams.net" modified="2023-06-27T03:09:27.292Z" agent="Mozilla/5.0 (Macintosh; Intel Mac OS X 10_15_7) AppleWebKit/537.36 (KHTML, like Gecko) Chrome/114.0.0.0 Safari/537.36" etag="dMbh2oAjAelnzcmjgI1O" version="21.5.0" type="github">
  <diagram name="페이지-1" id="QqTQGsaNTkBBWMUroI7n">
    <mxGraphModel dx="2049" dy="1101" grid="1" gridSize="10" guides="1" tooltips="1" connect="1" arrows="1" fold="1" page="1" pageScale="1" pageWidth="827" pageHeight="1169" math="0" shadow="0">
      <root>
        <mxCell id="0" />
        <mxCell id="1" parent="0" />
        <mxCell id="r19DhhztpJvtwKlk5R9B-1" value="AWS Cloud" style="sketch=0;outlineConnect=0;gradientColor=none;html=1;whiteSpace=wrap;fontSize=12;fontStyle=0;shape=mxgraph.aws4.group;grIcon=mxgraph.aws4.group_aws_cloud;strokeColor=#AAB7B8;fillColor=none;verticalAlign=top;align=left;spacingLeft=30;fontColor=#AAB7B8;dashed=0;" vertex="1" parent="1">
          <mxGeometry x="80" y="100" width="1120" height="930" as="geometry" />
        </mxCell>
        <mxCell id="r19DhhztpJvtwKlk5R9B-2" value="Region" style="points=[[0,0],[0.25,0],[0.5,0],[0.75,0],[1,0],[1,0.25],[1,0.5],[1,0.75],[1,1],[0.75,1],[0.5,1],[0.25,1],[0,1],[0,0.75],[0,0.5],[0,0.25]];outlineConnect=0;gradientColor=none;html=1;whiteSpace=wrap;fontSize=12;fontStyle=0;container=1;pointerEvents=0;collapsible=0;recursiveResize=0;shape=mxgraph.aws4.group;grIcon=mxgraph.aws4.group_region;strokeColor=#147EBA;fillColor=none;verticalAlign=top;align=left;spacingLeft=30;fontColor=#147EBA;" vertex="1" parent="1">
          <mxGeometry x="120" y="230" width="1040" height="760" as="geometry" />
        </mxCell>
        <mxCell id="r19DhhztpJvtwKlk5R9B-3" value="" style="rounded=1;arcSize=10;dashed=1;strokeColor=#F59D56;fillColor=none;gradientColor=none;dashPattern=8 4;strokeWidth=2;" vertex="1" parent="r19DhhztpJvtwKlk5R9B-2">
          <mxGeometry x="599" y="40" width="360" height="680" as="geometry" />
        </mxCell>
        <mxCell id="r19DhhztpJvtwKlk5R9B-4" value="" style="points=[[0,0],[0.25,0],[0.5,0],[0.75,0],[1,0],[1,0.25],[1,0.5],[1,0.75],[1,1],[0.75,1],[0.5,1],[0.25,1],[0,1],[0,0.75],[0,0.5],[0,0.25]];outlineConnect=0;gradientColor=none;html=1;whiteSpace=wrap;fontSize=12;fontStyle=0;container=1;pointerEvents=0;collapsible=0;recursiveResize=0;shape=mxgraph.aws4.group;grIcon=mxgraph.aws4.group_security_group;grStroke=0;strokeColor=#147EBA;fillColor=#E6F2F8;verticalAlign=top;align=left;spacingLeft=30;fontColor=#147EBA;dashed=0;" vertex="1" parent="r19DhhztpJvtwKlk5R9B-2">
          <mxGeometry x="639" y="340" width="280" height="120" as="geometry" />
        </mxCell>
        <mxCell id="r19DhhztpJvtwKlk5R9B-5" value="VPC" style="points=[[0,0],[0.25,0],[0.5,0],[0.75,0],[1,0],[1,0.25],[1,0.5],[1,0.75],[1,1],[0.75,1],[0.5,1],[0.25,1],[0,1],[0,0.75],[0,0.5],[0,0.25]];outlineConnect=0;gradientColor=none;html=1;whiteSpace=wrap;fontSize=12;fontStyle=0;container=0;pointerEvents=0;collapsible=0;recursiveResize=0;shape=mxgraph.aws4.group;grIcon=mxgraph.aws4.group_vpc;strokeColor=#248814;fillColor=none;verticalAlign=top;align=left;spacingLeft=30;fontColor=#AAB7B8;dashed=0;" vertex="1" parent="r19DhhztpJvtwKlk5R9B-2">
          <mxGeometry x="159" y="80" width="840" height="600" as="geometry" />
        </mxCell>
        <mxCell id="r19DhhztpJvtwKlk5R9B-6" value="" style="sketch=0;points=[[0,0,0],[0.25,0,0],[0.5,0,0],[0.75,0,0],[1,0,0],[0,1,0],[0.25,1,0],[0.5,1,0],[0.75,1,0],[1,1,0],[0,0.25,0],[0,0.5,0],[0,0.75,0],[1,0.25,0],[1,0.5,0],[1,0.75,0]];outlineConnect=0;fontColor=#232F3E;gradientColor=#F78E04;gradientDirection=north;fillColor=#D05C17;strokeColor=#ffffff;dashed=0;verticalLabelPosition=bottom;verticalAlign=top;align=center;html=1;fontSize=12;fontStyle=0;aspect=fixed;shape=mxgraph.aws4.resourceIcon;resIcon=mxgraph.aws4.ec2;" vertex="1" parent="r19DhhztpJvtwKlk5R9B-2">
          <mxGeometry x="679" y="365" width="70" height="70" as="geometry" />
        </mxCell>
        <mxCell id="r19DhhztpJvtwKlk5R9B-7" value="" style="points=[[0,0],[0.25,0],[0.5,0],[0.75,0],[1,0],[1,0.25],[1,0.5],[1,0.75],[1,1],[0.75,1],[0.5,1],[0.25,1],[0,1],[0,0.75],[0,0.5],[0,0.25]];outlineConnect=0;gradientColor=none;html=1;whiteSpace=wrap;fontSize=12;fontStyle=0;container=1;pointerEvents=0;collapsible=0;recursiveResize=0;shape=mxgraph.aws4.group;grIcon=mxgraph.aws4.group_security_group;grStroke=0;strokeColor=#248814;fillColor=#E9F3E6;verticalAlign=top;align=left;spacingLeft=30;fontColor=#248814;dashed=0;" vertex="1" parent="r19DhhztpJvtwKlk5R9B-2">
          <mxGeometry x="639" y="120" width="280" height="120" as="geometry" />
        </mxCell>
        <mxCell id="r19DhhztpJvtwKlk5R9B-8" value="" style="outlineConnect=0;dashed=0;verticalLabelPosition=bottom;verticalAlign=top;align=center;html=1;shape=mxgraph.aws3.vpc_nat_gateway;fillColor=#F58534;gradientColor=none;" vertex="1" parent="r19DhhztpJvtwKlk5R9B-2">
          <mxGeometry x="750.25" y="150" width="57.5" height="60" as="geometry" />
        </mxCell>
        <mxCell id="r19DhhztpJvtwKlk5R9B-9" value="" style="points=[[0,0],[0.25,0],[0.5,0],[0.75,0],[1,0],[1,0.25],[1,0.5],[1,0.75],[1,1],[0.75,1],[0.5,1],[0.25,1],[0,1],[0,0.75],[0,0.5],[0,0.25]];outlineConnect=0;gradientColor=none;html=1;whiteSpace=wrap;fontSize=12;fontStyle=0;container=1;pointerEvents=0;collapsible=0;recursiveResize=0;shape=mxgraph.aws4.group;grIcon=mxgraph.aws4.group_security_group;grStroke=0;strokeColor=#147EBA;fillColor=#E6F2F8;verticalAlign=top;align=left;spacingLeft=30;fontColor=#147EBA;dashed=0;" vertex="1" parent="r19DhhztpJvtwKlk5R9B-2">
          <mxGeometry x="639" y="520" width="280" height="120" as="geometry" />
        </mxCell>
        <mxCell id="r19DhhztpJvtwKlk5R9B-10" value="RDS Primary&lt;br&gt;Standby" style="sketch=0;points=[[0,0,0],[0.25,0,0],[0.5,0,0],[0.75,0,0],[1,0,0],[0,1,0],[0.25,1,0],[0.5,1,0],[0.75,1,0],[1,1,0],[0,0.25,0],[0,0.5,0],[0,0.75,0],[1,0.25,0],[1,0.5,0],[1,0.75,0]];outlineConnect=0;fontColor=#232F3E;gradientColor=#4D72F3;gradientDirection=north;fillColor=#3334B9;strokeColor=#ffffff;dashed=0;verticalLabelPosition=bottom;verticalAlign=top;align=center;html=1;fontSize=12;fontStyle=1;aspect=fixed;shape=mxgraph.aws4.resourceIcon;resIcon=mxgraph.aws4.rds;" vertex="1" parent="r19DhhztpJvtwKlk5R9B-2">
          <mxGeometry x="679" y="550" width="60" height="60" as="geometry" />
        </mxCell>
        <mxCell id="r19DhhztpJvtwKlk5R9B-11" value="RDS&lt;br&gt;Red Replica&lt;br&gt;Standby" style="sketch=0;points=[[0,0,0],[0.25,0,0],[0.5,0,0],[0.75,0,0],[1,0,0],[0,1,0],[0.25,1,0],[0.5,1,0],[0.75,1,0],[1,1,0],[0,0.25,0],[0,0.5,0],[0,0.75,0],[1,0.25,0],[1,0.5,0],[1,0.75,0]];outlineConnect=0;fontColor=#232F3E;gradientColor=#4D72F3;gradientDirection=north;fillColor=#3334B9;strokeColor=#ffffff;dashed=0;verticalLabelPosition=middle;verticalAlign=middle;align=left;html=1;fontSize=12;fontStyle=1;aspect=fixed;shape=mxgraph.aws4.resourceIcon;resIcon=mxgraph.aws4.rds;labelPosition=right;" vertex="1" parent="r19DhhztpJvtwKlk5R9B-2">
          <mxGeometry x="779" y="550" width="60" height="60" as="geometry" />
        </mxCell>
        <mxCell id="r19DhhztpJvtwKlk5R9B-12" value="" style="rounded=1;arcSize=10;dashed=1;strokeColor=#F59D56;fillColor=none;gradientColor=none;dashPattern=8 4;strokeWidth=2;" vertex="1" parent="r19DhhztpJvtwKlk5R9B-2">
          <mxGeometry x="199" y="40" width="360" height="680" as="geometry" />
        </mxCell>
        <mxCell id="r19DhhztpJvtwKlk5R9B-13" value="" style="points=[[0,0],[0.25,0],[0.5,0],[0.75,0],[1,0],[1,0.25],[1,0.5],[1,0.75],[1,1],[0.75,1],[0.5,1],[0.25,1],[0,1],[0,0.75],[0,0.5],[0,0.25]];outlineConnect=0;gradientColor=none;html=1;whiteSpace=wrap;fontSize=12;fontStyle=0;container=1;pointerEvents=0;collapsible=0;recursiveResize=0;shape=mxgraph.aws4.group;grIcon=mxgraph.aws4.group_security_group;grStroke=0;strokeColor=#248814;fillColor=#E9F3E6;verticalAlign=top;align=left;spacingLeft=30;fontColor=#248814;dashed=0;" vertex="1" parent="r19DhhztpJvtwKlk5R9B-2">
          <mxGeometry x="239" y="120" width="280" height="120" as="geometry" />
        </mxCell>
        <mxCell id="r19DhhztpJvtwKlk5R9B-14" value="" style="outlineConnect=0;dashed=0;verticalLabelPosition=bottom;verticalAlign=top;align=center;html=1;shape=mxgraph.aws3.instances;fillColor=#F58534;gradientColor=none;" vertex="1" parent="r19DhhztpJvtwKlk5R9B-13">
          <mxGeometry x="184" y="28.5" width="60" height="63" as="geometry" />
        </mxCell>
        <mxCell id="r19DhhztpJvtwKlk5R9B-15" value="" style="points=[[0,0],[0.25,0],[0.5,0],[0.75,0],[1,0],[1,0.25],[1,0.5],[1,0.75],[1,1],[0.75,1],[0.5,1],[0.25,1],[0,1],[0,0.75],[0,0.5],[0,0.25]];outlineConnect=0;gradientColor=none;html=1;whiteSpace=wrap;fontSize=12;fontStyle=0;container=1;pointerEvents=0;collapsible=0;recursiveResize=0;shape=mxgraph.aws4.group;grIcon=mxgraph.aws4.group_security_group;grStroke=0;strokeColor=#147EBA;fillColor=#E6F2F8;verticalAlign=top;align=left;spacingLeft=30;fontColor=#147EBA;dashed=0;" vertex="1" parent="r19DhhztpJvtwKlk5R9B-2">
          <mxGeometry x="239" y="340" width="280" height="120" as="geometry" />
        </mxCell>
        <mxCell id="r19DhhztpJvtwKlk5R9B-16" value="" style="outlineConnect=0;dashed=0;verticalLabelPosition=bottom;verticalAlign=top;align=center;html=1;shape=mxgraph.aws3.vpc_nat_gateway;fillColor=#F58534;gradientColor=none;" vertex="1" parent="r19DhhztpJvtwKlk5R9B-2">
          <mxGeometry x="279" y="150" width="57.5" height="60" as="geometry" />
        </mxCell>
        <mxCell id="r19DhhztpJvtwKlk5R9B-17" value="Auto Scaling group" style="points=[[0,0],[0.25,0],[0.5,0],[0.75,0],[1,0],[1,0.25],[1,0.5],[1,0.75],[1,1],[0.75,1],[0.5,1],[0.25,1],[0,1],[0,0.75],[0,0.5],[0,0.25]];outlineConnect=0;gradientColor=none;html=1;whiteSpace=wrap;fontSize=12;fontStyle=0;container=1;pointerEvents=0;collapsible=0;recursiveResize=0;shape=mxgraph.aws4.groupCenter;grIcon=mxgraph.aws4.group_auto_scaling_group;grStroke=1;strokeColor=#D86613;fillColor=none;verticalAlign=top;align=center;fontColor=#D86613;spacingTop=25;" vertex="1" parent="r19DhhztpJvtwKlk5R9B-2">
          <mxGeometry x="388.5" y="320" width="381" height="160" as="geometry" />
        </mxCell>
        <mxCell id="r19DhhztpJvtwKlk5R9B-18" style="edgeStyle=orthogonalEdgeStyle;rounded=1;orthogonalLoop=1;jettySize=auto;html=1;" edge="1" parent="r19DhhztpJvtwKlk5R9B-2" source="r19DhhztpJvtwKlk5R9B-31" target="r19DhhztpJvtwKlk5R9B-16">
          <mxGeometry relative="1" as="geometry" />
        </mxCell>
        <mxCell id="r19DhhztpJvtwKlk5R9B-19" style="edgeStyle=orthogonalEdgeStyle;rounded=0;orthogonalLoop=1;jettySize=auto;html=1;" edge="1" parent="r19DhhztpJvtwKlk5R9B-2" source="r19DhhztpJvtwKlk5R9B-14" target="r19DhhztpJvtwKlk5R9B-31">
          <mxGeometry relative="1" as="geometry" />
        </mxCell>
        <mxCell id="r19DhhztpJvtwKlk5R9B-20" value="" style="outlineConnect=0;dashed=0;verticalLabelPosition=bottom;verticalAlign=top;align=center;html=1;shape=mxgraph.aws3.internet_gateway;fillColor=#F58534;gradientColor=none;" vertex="1" parent="r19DhhztpJvtwKlk5R9B-2">
          <mxGeometry x="550.25" y="60" width="57.5" height="60" as="geometry" />
        </mxCell>
        <mxCell id="r19DhhztpJvtwKlk5R9B-21" style="edgeStyle=orthogonalEdgeStyle;rounded=1;orthogonalLoop=1;jettySize=auto;html=1;entryX=0;entryY=0.5;entryDx=0;entryDy=0;entryPerimeter=0;" edge="1" parent="r19DhhztpJvtwKlk5R9B-2" source="r19DhhztpJvtwKlk5R9B-16" target="r19DhhztpJvtwKlk5R9B-20">
          <mxGeometry relative="1" as="geometry">
            <Array as="points">
              <mxPoint x="309" y="90" />
            </Array>
          </mxGeometry>
        </mxCell>
        <mxCell id="r19DhhztpJvtwKlk5R9B-22" style="edgeStyle=orthogonalEdgeStyle;rounded=1;orthogonalLoop=1;jettySize=auto;html=1;" edge="1" parent="r19DhhztpJvtwKlk5R9B-2" source="r19DhhztpJvtwKlk5R9B-20" target="r19DhhztpJvtwKlk5R9B-14">
          <mxGeometry relative="1" as="geometry" />
        </mxCell>
        <mxCell id="r19DhhztpJvtwKlk5R9B-23" value="" style="points=[[0,0],[0.25,0],[0.5,0],[0.75,0],[1,0],[1,0.25],[1,0.5],[1,0.75],[1,1],[0.75,1],[0.5,1],[0.25,1],[0,1],[0,0.75],[0,0.5],[0,0.25]];outlineConnect=0;gradientColor=none;html=1;whiteSpace=wrap;fontSize=12;fontStyle=0;container=1;pointerEvents=0;collapsible=0;recursiveResize=0;shape=mxgraph.aws4.group;grIcon=mxgraph.aws4.group_security_group;grStroke=0;strokeColor=#147EBA;fillColor=#E6F2F8;verticalAlign=top;align=left;spacingLeft=30;fontColor=#147EBA;dashed=0;" vertex="1" parent="r19DhhztpJvtwKlk5R9B-2">
          <mxGeometry x="239" y="520" width="280" height="120" as="geometry" />
        </mxCell>
        <mxCell id="r19DhhztpJvtwKlk5R9B-24" value="" style="outlineConnect=0;dashed=0;verticalLabelPosition=middle;verticalAlign=middle;align=left;html=1;shape=mxgraph.aws3.application_load_balancer;fillColor=#F58534;gradientColor=none;labelPosition=right;" vertex="1" parent="r19DhhztpJvtwKlk5R9B-2">
          <mxGeometry x="550.25" y="180" width="57.5" height="60" as="geometry" />
        </mxCell>
        <mxCell id="r19DhhztpJvtwKlk5R9B-25" style="edgeStyle=orthogonalEdgeStyle;rounded=0;orthogonalLoop=1;jettySize=auto;html=1;" edge="1" parent="r19DhhztpJvtwKlk5R9B-2" source="r19DhhztpJvtwKlk5R9B-24" target="r19DhhztpJvtwKlk5R9B-17">
          <mxGeometry relative="1" as="geometry" />
        </mxCell>
        <mxCell id="r19DhhztpJvtwKlk5R9B-26" style="edgeStyle=orthogonalEdgeStyle;rounded=0;orthogonalLoop=1;jettySize=auto;html=1;entryX=0.5;entryY=0;entryDx=0;entryDy=0;entryPerimeter=0;" edge="1" parent="r19DhhztpJvtwKlk5R9B-2" source="r19DhhztpJvtwKlk5R9B-20" target="r19DhhztpJvtwKlk5R9B-24">
          <mxGeometry relative="1" as="geometry" />
        </mxCell>
        <mxCell id="r19DhhztpJvtwKlk5R9B-27" value="Async" style="edgeStyle=orthogonalEdgeStyle;rounded=0;orthogonalLoop=1;jettySize=auto;html=1;labelBackgroundColor=none;fontSize=13;fontStyle=1;strokeWidth=2;" edge="1" parent="r19DhhztpJvtwKlk5R9B-2" source="r19DhhztpJvtwKlk5R9B-28" target="r19DhhztpJvtwKlk5R9B-34">
          <mxGeometry x="0.0909" y="-20" relative="1" as="geometry">
            <mxPoint as="offset" />
          </mxGeometry>
        </mxCell>
        <mxCell id="r19DhhztpJvtwKlk5R9B-28" value="RDS Primary" style="sketch=0;points=[[0,0,0],[0.25,0,0],[0.5,0,0],[0.75,0,0],[1,0,0],[0,1,0],[0.25,1,0],[0.5,1,0],[0.75,1,0],[1,1,0],[0,0.25,0],[0,0.5,0],[0,0.75,0],[1,0.25,0],[1,0.5,0],[1,0.75,0]];outlineConnect=0;fontColor=#232F3E;gradientColor=#4D72F3;gradientDirection=north;fillColor=#3334B9;strokeColor=#ffffff;dashed=0;verticalLabelPosition=bottom;verticalAlign=top;align=center;html=1;fontSize=12;fontStyle=0;aspect=fixed;shape=mxgraph.aws4.resourceIcon;resIcon=mxgraph.aws4.rds;" vertex="1" parent="r19DhhztpJvtwKlk5R9B-2">
          <mxGeometry x="423" y="550" width="60" height="60" as="geometry" />
        </mxCell>
        <mxCell id="r19DhhztpJvtwKlk5R9B-29" value="Read" style="edgeStyle=orthogonalEdgeStyle;rounded=1;orthogonalLoop=1;jettySize=auto;html=1;fontSize=13;strokeWidth=2;" edge="1" parent="r19DhhztpJvtwKlk5R9B-2" source="r19DhhztpJvtwKlk5R9B-31" target="r19DhhztpJvtwKlk5R9B-34">
          <mxGeometry x="0.0431" relative="1" as="geometry">
            <Array as="points">
              <mxPoint x="453" y="500" />
              <mxPoint x="349" y="500" />
            </Array>
            <mxPoint as="offset" />
          </mxGeometry>
        </mxCell>
        <mxCell id="r19DhhztpJvtwKlk5R9B-30" style="edgeStyle=orthogonalEdgeStyle;rounded=1;orthogonalLoop=1;jettySize=auto;html=1;strokeWidth=2;" edge="1" parent="r19DhhztpJvtwKlk5R9B-2" source="r19DhhztpJvtwKlk5R9B-31" target="r19DhhztpJvtwKlk5R9B-33">
          <mxGeometry relative="1" as="geometry" />
        </mxCell>
        <mxCell id="r19DhhztpJvtwKlk5R9B-31" value="" style="sketch=0;points=[[0,0,0],[0.25,0,0],[0.5,0,0],[0.75,0,0],[1,0,0],[0,1,0],[0.25,1,0],[0.5,1,0],[0.75,1,0],[1,1,0],[0,0.25,0],[0,0.5,0],[0,0.75,0],[1,0.25,0],[1,0.5,0],[1,0.75,0]];outlineConnect=0;fontColor=#232F3E;gradientColor=#F78E04;gradientDirection=north;fillColor=#D05C17;strokeColor=#ffffff;dashed=0;verticalLabelPosition=bottom;verticalAlign=top;align=center;html=1;fontSize=12;fontStyle=0;aspect=fixed;shape=mxgraph.aws4.resourceIcon;resIcon=mxgraph.aws4.ec2;" vertex="1" parent="r19DhhztpJvtwKlk5R9B-2">
          <mxGeometry x="418" y="365" width="70" height="70" as="geometry" />
        </mxCell>
        <mxCell id="r19DhhztpJvtwKlk5R9B-32" value="Write" style="edgeStyle=orthogonalEdgeStyle;rounded=0;orthogonalLoop=1;jettySize=auto;html=1;entryX=0.5;entryY=0;entryDx=0;entryDy=0;entryPerimeter=0;align=left;fontSize=13;strokeWidth=2;" edge="1" parent="r19DhhztpJvtwKlk5R9B-2" source="r19DhhztpJvtwKlk5R9B-31" target="r19DhhztpJvtwKlk5R9B-28">
          <mxGeometry x="0.3043" y="-14" relative="1" as="geometry">
            <mxPoint as="offset" />
          </mxGeometry>
        </mxCell>
        <mxCell id="r19DhhztpJvtwKlk5R9B-33" value="&lt;b&gt;S3&lt;/b&gt;" style="sketch=0;points=[[0,0,0],[0.25,0,0],[0.5,0,0],[0.75,0,0],[1,0,0],[0,1,0],[0.25,1,0],[0.5,1,0],[0.75,1,0],[1,1,0],[0,0.25,0],[0,0.5,0],[0,0.75,0],[1,0.25,0],[1,0.5,0],[1,0.75,0]];outlineConnect=0;fontColor=#232F3E;gradientColor=#60A337;gradientDirection=north;fillColor=#277116;strokeColor=#ffffff;dashed=0;verticalLabelPosition=middle;verticalAlign=middle;align=left;html=1;fontSize=12;fontStyle=0;aspect=fixed;shape=mxgraph.aws4.resourceIcon;resIcon=mxgraph.aws4.s3;labelPosition=right;" vertex="1" parent="r19DhhztpJvtwKlk5R9B-2">
          <mxGeometry x="40" y="141.75" width="76.5" height="76.5" as="geometry" />
        </mxCell>
        <mxCell id="r19DhhztpJvtwKlk5R9B-34" value="RDS&lt;br&gt;Read Replica" style="sketch=0;points=[[0,0,0],[0.25,0,0],[0.5,0,0],[0.75,0,0],[1,0,0],[0,1,0],[0.25,1,0],[0.5,1,0],[0.75,1,0],[1,1,0],[0,0.25,0],[0,0.5,0],[0,0.75,0],[1,0.25,0],[1,0.5,0],[1,0.75,0]];outlineConnect=0;fontColor=#232F3E;gradientColor=#4D72F3;gradientDirection=north;fillColor=#3334B9;strokeColor=#ffffff;dashed=0;verticalLabelPosition=middle;verticalAlign=middle;align=right;html=1;fontSize=12;fontStyle=1;aspect=fixed;shape=mxgraph.aws4.resourceIcon;resIcon=mxgraph.aws4.rds;labelPosition=left;" vertex="1" parent="r19DhhztpJvtwKlk5R9B-2">
          <mxGeometry x="319" y="550" width="60" height="60" as="geometry" />
        </mxCell>
        <mxCell id="r19DhhztpJvtwKlk5R9B-35" value="Sync" style="edgeStyle=orthogonalEdgeStyle;rounded=1;orthogonalLoop=1;jettySize=auto;html=1;entryX=0.5;entryY=1;entryDx=0;entryDy=0;entryPerimeter=0;fontSize=13;fontStyle=1;strokeWidth=2;" edge="1" parent="r19DhhztpJvtwKlk5R9B-2" source="r19DhhztpJvtwKlk5R9B-34" target="r19DhhztpJvtwKlk5R9B-11">
          <mxGeometry relative="1" as="geometry">
            <Array as="points">
              <mxPoint x="349" y="660" />
              <mxPoint x="809" y="660" />
            </Array>
          </mxGeometry>
        </mxCell>
        <mxCell id="r19DhhztpJvtwKlk5R9B-36" value="Sync" style="edgeStyle=orthogonalEdgeStyle;rounded=0;orthogonalLoop=1;jettySize=auto;html=1;entryX=0;entryY=0.5;entryDx=0;entryDy=0;entryPerimeter=0;fontSize=13;fontStyle=1;strokeWidth=2;" edge="1" parent="r19DhhztpJvtwKlk5R9B-2" source="r19DhhztpJvtwKlk5R9B-28" target="r19DhhztpJvtwKlk5R9B-10">
          <mxGeometry relative="1" as="geometry" />
        </mxCell>
        <mxCell id="r19DhhztpJvtwKlk5R9B-37" style="edgeStyle=orthogonalEdgeStyle;rounded=0;orthogonalLoop=1;jettySize=auto;html=1;" edge="1" parent="1" source="r19DhhztpJvtwKlk5R9B-39" target="r19DhhztpJvtwKlk5R9B-20">
          <mxGeometry relative="1" as="geometry" />
        </mxCell>
        <mxCell id="r19DhhztpJvtwKlk5R9B-38" style="edgeStyle=orthogonalEdgeStyle;rounded=1;orthogonalLoop=1;jettySize=auto;html=1;strokeWidth=2;" edge="1" parent="1" source="r19DhhztpJvtwKlk5R9B-39" target="r19DhhztpJvtwKlk5R9B-42">
          <mxGeometry relative="1" as="geometry" />
        </mxCell>
        <mxCell id="r19DhhztpJvtwKlk5R9B-39" value="" style="sketch=0;outlineConnect=0;fontColor=#232F3E;gradientColor=none;strokeColor=#232F3E;fillColor=#ffffff;dashed=0;verticalLabelPosition=bottom;verticalAlign=top;align=center;html=1;fontSize=12;fontStyle=0;shape=mxgraph.aws4.resourceIcon;resIcon=mxgraph.aws4.internet_alt1;" vertex="1" parent="1">
          <mxGeometry x="664" y="30" width="70" height="50" as="geometry" />
        </mxCell>
        <mxCell id="r19DhhztpJvtwKlk5R9B-40" style="edgeStyle=orthogonalEdgeStyle;rounded=0;orthogonalLoop=1;jettySize=auto;html=1;" edge="1" parent="1" source="r19DhhztpJvtwKlk5R9B-20" target="r19DhhztpJvtwKlk5R9B-39">
          <mxGeometry relative="1" as="geometry" />
        </mxCell>
        <mxCell id="r19DhhztpJvtwKlk5R9B-41" style="edgeStyle=orthogonalEdgeStyle;rounded=1;orthogonalLoop=1;jettySize=auto;html=1;strokeWidth=2;" edge="1" parent="1" source="r19DhhztpJvtwKlk5R9B-42" target="r19DhhztpJvtwKlk5R9B-33">
          <mxGeometry relative="1" as="geometry" />
        </mxCell>
        <mxCell id="r19DhhztpJvtwKlk5R9B-42" value="&lt;b&gt;CloudFront&lt;/b&gt;" style="sketch=0;points=[[0,0,0],[0.25,0,0],[0.5,0,0],[0.75,0,0],[1,0,0],[0,1,0],[0.25,1,0],[0.5,1,0],[0.75,1,0],[1,1,0],[0,0.25,0],[0,0.5,0],[0,0.75,0],[1,0.25,0],[1,0.5,0],[1,0.75,0]];outlineConnect=0;fontColor=#232F3E;gradientColor=#945DF2;gradientDirection=north;fillColor=#5A30B5;strokeColor=#ffffff;dashed=0;verticalLabelPosition=bottom;verticalAlign=top;align=center;html=1;fontSize=12;fontStyle=0;aspect=fixed;shape=mxgraph.aws4.resourceIcon;resIcon=mxgraph.aws4.cloudfront;" vertex="1" parent="1">
          <mxGeometry x="390" y="130" width="78" height="78" as="geometry" />
        </mxCell>
      </root>
    </mxGraphModel>
  </diagram>
</mxfile>
